<?xml version="1.0" standalone="no"?>
<!DOCTYPE svg PUBLIC "-//W3C//DTD SVG 20010904//EN"
 "http://www.w3.org/TR/2001/REC-SVG-20010904/DTD/svg10.dtd">
<svg version="1.0" xmlns="http://www.w3.org/2000/svg"
 width="32.000000pt" height="32.000000pt" viewBox="0 0 32.000000 32.000000"
 preserveAspectRatio="xMidYMid meet">

<g transform="translate(0.000000,32.000000) scale(0.100000,-0.100000)"
fill="#000000" stroke="none">
<path d="M93 220 l-42 -80 25 0 c18 0 29 9 41 35 9 19 20 35 23 35 3 0 14 -16
23 -35 11 -23 24 -35 37 -35 11 0 20 2 20 5 0 10 -75 155 -80 155 -3 0 -24
-36 -47 -80z"/>
<path d="M173 71 l31 -59 32 57 c26 46 29 57 16 60 -9 2 -18 -1 -19 -6 -2 -6
-10 -19 -17 -29 -14 -18 -15 -18 -27 9 -7 15 -20 27 -29 27 -15 0 -13 -9 13
-59z"/>
</g>
</svg>
